<svg xmlns="http://www.w3.org/2000/svg" width="1840" height="430" viewBox="0 0 1840 430"
     font-family="system-ui,-apple-system,BlinkMacSystemFont,'Segoe UI',Helvetica,Arial,sans-serif">
  <defs>
    <filter id="sh"><feDropShadow dx="0" dy="1" stdDeviation="3" flood-color="rgba(0,0,0,0.10)"/></filter>
    <marker id="a"   markerWidth="7" markerHeight="6" refX="7" refY="3" orient="auto"><polygon points="0 0,7 3,0 6" fill="#94A3B8"/></marker>
    <marker id="a-p" markerWidth="7" markerHeight="6" refX="7" refY="3" orient="auto"><polygon points="0 0,7 3,0 6" fill="#9333EA"/></marker>
    <marker id="a-r" markerWidth="7" markerHeight="6" refX="7" refY="3" orient="auto"><polygon points="0 0,7 3,0 6" fill="#DC2626"/></marker>
    <marker id="a-b" markerWidth="7" markerHeight="6" refX="7" refY="3" orient="auto"><polygon points="0 0,7 3,0 6" fill="#0284C7"/></marker>
  </defs>

  <rect width="1840" height="430" fill="#F8FAFC"/>

  <!-- ═══════════════════════════════════════ -->
  <!-- CONNECTORS                             -->
  <!-- ═══════════════════════════════════════ -->

  <!-- Root → L1 -->
  <line x1="918"  y1="70"  x2="918"  y2="105" stroke="#94A3B8" stroke-width="1.5"/>
  <line x1="135"  y1="105" x2="1578" y2="105" stroke="#94A3B8" stroke-width="1.5"/>
  <line x1="135"  y1="105" x2="135"  y2="140" stroke="#94A3B8" stroke-width="1.5" marker-end="url(#a)"/>
  <line x1="795"  y1="105" x2="795"  y2="140" stroke="#94A3B8" stroke-width="1.5" marker-end="url(#a)"/>
  <line x1="1578" y1="105" x2="1578" y2="140" stroke="#94A3B8" stroke-width="1.5" marker-end="url(#a)"/>

  <!-- Terraform L1 → main.tf -->
  <line x1="135" y1="195" x2="135" y2="255" stroke="#9333EA" stroke-width="1.5" marker-end="url(#a-p)"/>

  <!-- Ansible L1 → 5 playbooks (junction y=225) -->
  <line x1="795"  y1="195" x2="795"  y2="225" stroke="#DC2626" stroke-width="1.5"/>
  <line x1="395"  y1="225" x2="1255" y2="225" stroke="#DC2626" stroke-width="1.5"/>
  <line x1="395"  y1="225" x2="395"  y2="255" stroke="#DC2626" stroke-width="1.5" marker-end="url(#a-r)"/>
  <line x1="595"  y1="225" x2="595"  y2="255" stroke="#DC2626" stroke-width="1.5" marker-end="url(#a-r)"/>
  <line x1="735"  y1="225" x2="735"  y2="255" stroke="#DC2626" stroke-width="1.5" marker-end="url(#a-r)"/>
  <line x1="995"  y1="225" x2="995"  y2="255" stroke="#DC2626" stroke-width="1.5" marker-end="url(#a-r)"/>
  <line x1="1255" y1="225" x2="1255" y2="255" stroke="#DC2626" stroke-width="1.5" marker-end="url(#a-r)"/>

  <!-- Docker L1 → 2 Dockerfiles (junction y=225) -->
  <line x1="1578" y1="195" x2="1578" y2="225" stroke="#0284C7" stroke-width="1.5"/>
  <line x1="1455" y1="225" x2="1700" y2="225" stroke="#0284C7" stroke-width="1.5"/>
  <line x1="1455" y1="225" x2="1455" y2="255" stroke="#0284C7" stroke-width="1.5" marker-end="url(#a-b)"/>
  <line x1="1700" y1="225" x2="1700" y2="255" stroke="#0284C7" stroke-width="1.5" marker-end="url(#a-b)"/>

  <!-- main.tf → 2 resources (junction y=330) -->
  <line x1="135" y1="300" x2="135" y2="330" stroke="#9333EA" stroke-width="1.5"/>
  <line x1="75"  y1="330" x2="195" y2="330" stroke="#9333EA" stroke-width="1.5"/>
  <line x1="75"  y1="330" x2="75"  y2="360" stroke="#9333EA" stroke-width="1.5" marker-end="url(#a-p)"/>
  <line x1="195" y1="330" x2="195" y2="360" stroke="#9333EA" stroke-width="1.5" marker-end="url(#a-p)"/>

  <!-- base.yml → 2 (junction y=330) -->
  <line x1="395" y1="300" x2="395" y2="330" stroke="#DC2626" stroke-width="1.5"/>
  <line x1="335" y1="330" x2="455" y2="330" stroke="#DC2626" stroke-width="1.5"/>
  <line x1="335" y1="330" x2="335" y2="360" stroke="#DC2626" stroke-width="1.5" marker-end="url(#a-r)"/>
  <line x1="455" y1="330" x2="455" y2="360" stroke="#DC2626" stroke-width="1.5" marker-end="url(#a-r)"/>

  <!-- swarm.yml → 1 (straight) -->
  <line x1="595" y1="300" x2="595" y2="360" stroke="#DC2626" stroke-width="1.5" marker-end="url(#a-r)"/>

  <!-- db.yml → 1 (straight) -->
  <line x1="735" y1="300" x2="735" y2="360" stroke="#DC2626" stroke-width="1.5" marker-end="url(#a-r)"/>

  <!-- monitoring.yml → 3 (junction y=330) -->
  <line x1="995"  y1="300" x2="995"  y2="330" stroke="#DC2626" stroke-width="1.5"/>
  <line x1="875"  y1="330" x2="1115" y2="330" stroke="#DC2626" stroke-width="1.5"/>
  <line x1="875"  y1="330" x2="875"  y2="360" stroke="#DC2626" stroke-width="1.5" marker-end="url(#a-r)"/>
  <line x1="995"  y1="330" x2="995"  y2="360" stroke="#DC2626" stroke-width="1.5" marker-end="url(#a-r)"/>
  <line x1="1115" y1="330" x2="1115" y2="360" stroke="#DC2626" stroke-width="1.5" marker-end="url(#a-r)"/>

  <!-- deploy.yml → 1 (straight) -->
  <line x1="1255" y1="300" x2="1255" y2="360" stroke="#DC2626" stroke-width="1.5" marker-end="url(#a-r)"/>

  <!-- Df.java → 2 (junction y=330) -->
  <line x1="1455" y1="300" x2="1455" y2="330" stroke="#0284C7" stroke-width="1.5"/>
  <line x1="1395" y1="330" x2="1515" y2="330" stroke="#0284C7" stroke-width="1.5"/>
  <line x1="1395" y1="330" x2="1395" y2="360" stroke="#0284C7" stroke-width="1.5" marker-end="url(#a-b)"/>
  <line x1="1515" y1="330" x2="1515" y2="360" stroke="#0284C7" stroke-width="1.5" marker-end="url(#a-b)"/>

  <!-- Df.svelte → 2 (junction y=330) -->
  <line x1="1700" y1="300" x2="1700" y2="330" stroke="#0284C7" stroke-width="1.5"/>
  <line x1="1640" y1="330" x2="1760" y2="330" stroke="#0284C7" stroke-width="1.5"/>
  <line x1="1640" y1="330" x2="1640" y2="360" stroke="#0284C7" stroke-width="1.5" marker-end="url(#a-b)"/>
  <line x1="1760" y1="330" x2="1760" y2="360" stroke="#0284C7" stroke-width="1.5" marker-end="url(#a-b)"/>

  <!-- ═══════════════════════════════════════ -->
  <!-- L0 — ROOT                             -->
  <!-- ═══════════════════════════════════════ -->
  <rect x="808" y="20" width="220" height="50" rx="8" fill="#0F172A" filter="url(#sh)"/>
  <text x="918" y="42" text-anchor="middle" fill="white"   font-size="13" font-weight="700">Infrastructure Layer</text>
  <text x="918" y="58" text-anchor="middle" fill="#64748B" font-size="9">terraform · ansible · docker</text>

  <!-- ═══════════════════════════════════════ -->
  <!-- L1 — TOOLS                            -->
  <!-- ═══════════════════════════════════════ -->

  <rect x="40"   y="140" width="190" height="55" rx="8" fill="white" stroke="#9333EA" stroke-width="2" filter="url(#sh)"/>
  <text x="135"  y="157" text-anchor="middle" fill="#94A3B8" font-size="9"  font-style="italic">&lt;&lt;terraform&gt;&gt;</text>
  <text x="135"  y="172" text-anchor="middle" fill="#7E22CE" font-size="12" font-weight="700">infra/terraform</text>
  <text x="135"  y="186" text-anchor="middle" fill="#94A3B8" font-size="9"  font-family="'Courier New',monospace">main.tf · DO provider</text>

  <rect x="700"  y="140" width="190" height="55" rx="8" fill="white" stroke="#DC2626" stroke-width="2" filter="url(#sh)"/>
  <text x="795"  y="157" text-anchor="middle" fill="#94A3B8" font-size="9"  font-style="italic">&lt;&lt;ansible&gt;&gt;</text>
  <text x="795"  y="172" text-anchor="middle" fill="#B91C1C" font-size="12" font-weight="700">infra/ansible</text>
  <text x="795"  y="186" text-anchor="middle" fill="#94A3B8" font-size="9"  font-family="'Courier New',monospace">playbooks/ · inventory</text>

  <rect x="1483" y="140" width="190" height="55" rx="8" fill="white" stroke="#0284C7" stroke-width="2" filter="url(#sh)"/>
  <text x="1578" y="157" text-anchor="middle" fill="#94A3B8" font-size="9"  font-style="italic">&lt;&lt;docker&gt;&gt;</text>
  <text x="1578" y="172" text-anchor="middle" fill="#0369A1" font-size="12" font-weight="700">docker/</text>
  <text x="1578" y="186" text-anchor="middle" fill="#94A3B8" font-size="9"  font-family="'Courier New',monospace">Dockerfiles · compose</text>

  <!-- ═══════════════════════════════════════ -->
  <!-- L2 — CONFIG FILES                     -->
  <!-- ═══════════════════════════════════════ -->

  <rect x="70"   y="255" width="130" height="45" rx="7" fill="white" stroke="#9333EA" stroke-width="1.8" filter="url(#sh)"/>
  <text x="135"  y="271" text-anchor="middle" fill="#94A3B8" font-size="8.5" font-style="italic">&lt;&lt;terraform&gt;&gt;</text>
  <text x="135"  y="287" text-anchor="middle" fill="#7E22CE" font-size="11" font-weight="700" font-family="'Courier New',monospace">main.tf</text>

  <rect x="330"  y="255" width="130" height="45" rx="7" fill="white" stroke="#DC2626" stroke-width="1.8" filter="url(#sh)"/>
  <text x="395"  y="271" text-anchor="middle" fill="#94A3B8" font-size="8.5" font-style="italic">&lt;&lt;playbook&gt;&gt;</text>
  <text x="395"  y="287" text-anchor="middle" fill="#B91C1C" font-size="11" font-weight="700" font-family="'Courier New',monospace">base.yml</text>

  <rect x="530"  y="255" width="130" height="45" rx="7" fill="white" stroke="#DC2626" stroke-width="1.8" filter="url(#sh)"/>
  <text x="595"  y="271" text-anchor="middle" fill="#94A3B8" font-size="8.5" font-style="italic">&lt;&lt;playbook&gt;&gt;</text>
  <text x="595"  y="287" text-anchor="middle" fill="#B91C1C" font-size="11" font-weight="700" font-family="'Courier New',monospace">swarm.yml</text>

  <rect x="670"  y="255" width="130" height="45" rx="7" fill="white" stroke="#DC2626" stroke-width="1.8" filter="url(#sh)"/>
  <text x="735"  y="271" text-anchor="middle" fill="#94A3B8" font-size="8.5" font-style="italic">&lt;&lt;playbook&gt;&gt;</text>
  <text x="735"  y="287" text-anchor="middle" fill="#B91C1C" font-size="11" font-weight="700" font-family="'Courier New',monospace">db.yml</text>

  <rect x="930"  y="255" width="130" height="45" rx="7" fill="white" stroke="#DC2626" stroke-width="1.8" filter="url(#sh)"/>
  <text x="995"  y="271" text-anchor="middle" fill="#94A3B8" font-size="8.5" font-style="italic">&lt;&lt;playbook&gt;&gt;</text>
  <text x="995"  y="287" text-anchor="middle" fill="#B91C1C" font-size="11" font-weight="700" font-family="'Courier New',monospace">monitoring.yml</text>

  <rect x="1190" y="255" width="130" height="45" rx="7" fill="white" stroke="#DC2626" stroke-width="1.8" filter="url(#sh)"/>
  <text x="1255" y="271" text-anchor="middle" fill="#94A3B8" font-size="8.5" font-style="italic">&lt;&lt;playbook&gt;&gt;</text>
  <text x="1255" y="287" text-anchor="middle" fill="#B91C1C" font-size="11" font-weight="700" font-family="'Courier New',monospace">deploy.yml</text>

  <rect x="1390" y="255" width="130" height="45" rx="7" fill="white" stroke="#0284C7" stroke-width="1.8" filter="url(#sh)"/>
  <text x="1455" y="271" text-anchor="middle" fill="#94A3B8" font-size="8.5" font-style="italic">&lt;&lt;dockerfile&gt;&gt;</text>
  <text x="1455" y="287" text-anchor="middle" fill="#0369A1" font-size="11" font-weight="700" font-family="'Courier New',monospace">Dockerfile.java</text>

  <rect x="1635" y="255" width="130" height="45" rx="7" fill="white" stroke="#0284C7" stroke-width="1.8" filter="url(#sh)"/>
  <text x="1700" y="271" text-anchor="middle" fill="#94A3B8" font-size="8.5" font-style="italic">&lt;&lt;dockerfile&gt;&gt;</text>
  <text x="1700" y="287" text-anchor="middle" fill="#0369A1" font-size="11" font-weight="700" font-family="'Courier New',monospace">Dockerfile.svelte</text>

  <!-- ═══════════════════════════════════════ -->
  <!-- L3 — DEPENDENCIES                     -->
  <!-- ═══════════════════════════════════════ -->

  <!-- Terraform -->
  <rect x="20"  y="360" width="110" height="48" rx="6" fill="white" stroke="#C4B5FD" stroke-width="1.5" filter="url(#sh)"/>
  <text x="75"  y="379" text-anchor="middle" fill="#7C3AED" font-size="11" font-weight="600">Droplets ×5</text>
  <text x="75"  y="395" text-anchor="middle" fill="#64748B" font-size="10">s-1vcpu-2gb · FRA1</text>

  <rect x="140" y="360" width="110" height="48" rx="6" fill="white" stroke="#C4B5FD" stroke-width="1.5" filter="url(#sh)"/>
  <text x="195" y="379" text-anchor="middle" fill="#7C3AED" font-size="11" font-weight="600">Volumes ×2</text>
  <text x="195" y="395" text-anchor="middle" fill="#64748B" font-size="10">db + monitoring</text>

  <!-- base.yml -->
  <rect x="280" y="360" width="110" height="48" rx="6" fill="white" stroke="#FCA5A5" stroke-width="1.5" filter="url(#sh)"/>
  <text x="335" y="379" text-anchor="middle" fill="#991B1B" font-size="11" font-weight="600">Docker CE</text>
  <text x="335" y="395" text-anchor="middle" fill="#64748B" font-size="10">installed on all</text>

  <rect x="400" y="360" width="110" height="48" rx="6" fill="white" stroke="#FCA5A5" stroke-width="1.5" filter="url(#sh)"/>
  <text x="455" y="379" text-anchor="middle" fill="#991B1B" font-size="11" font-weight="600">Grafana Alloy</text>
  <text x="455" y="395" text-anchor="middle" fill="#64748B" font-size="10">collector agent</text>

  <!-- swarm.yml -->
  <rect x="540" y="360" width="110" height="48" rx="6" fill="white" stroke="#FCA5A5" stroke-width="1.5" filter="url(#sh)"/>
  <text x="595" y="379" text-anchor="middle" fill="#991B1B" font-size="11" font-weight="600">Docker Swarm</text>
  <text x="595" y="395" text-anchor="middle" fill="#64748B" font-size="10">init + join</text>

  <!-- db.yml -->
  <rect x="680" y="360" width="110" height="48" rx="6" fill="white" stroke="#FCA5A5" stroke-width="1.5" filter="url(#sh)"/>
  <text x="735" y="379" text-anchor="middle" fill="#991B1B" font-size="11" font-weight="600">postgres</text>
  <text x="735" y="395" text-anchor="middle" fill="#64748B" font-size="10">15-alpine</text>

  <!-- monitoring.yml -->
  <rect x="820" y="360" width="110" height="48" rx="6" fill="white" stroke="#FCA5A5" stroke-width="1.5" filter="url(#sh)"/>
  <text x="875" y="379" text-anchor="middle" fill="#991B1B" font-size="11" font-weight="600">Prometheus</text>
  <text x="875" y="395" text-anchor="middle" fill="#64748B" font-size="10">prom/prometheus</text>

  <rect x="940" y="360" width="110" height="48" rx="6" fill="white" stroke="#FCA5A5" stroke-width="1.5" filter="url(#sh)"/>
  <text x="995" y="379" text-anchor="middle" fill="#991B1B" font-size="11" font-weight="600">Grafana</text>
  <text x="995" y="395" text-anchor="middle" fill="#64748B" font-size="10">grafana/grafana</text>

  <rect x="1060" y="360" width="110" height="48" rx="6" fill="white" stroke="#FCA5A5" stroke-width="1.5" filter="url(#sh)"/>
  <text x="1115" y="379" text-anchor="middle" fill="#991B1B" font-size="11" font-weight="600">Loki</text>
  <text x="1115" y="395" text-anchor="middle" fill="#64748B" font-size="10">grafana/loki</text>

  <!-- deploy.yml -->
  <rect x="1200" y="360" width="110" height="48" rx="6" fill="white" stroke="#FCA5A5" stroke-width="1.5" filter="url(#sh)"/>
  <text x="1255" y="379" text-anchor="middle" fill="#991B1B" font-size="11" font-weight="600">App stack</text>
  <text x="1255" y="395" text-anchor="middle" fill="#64748B" font-size="10">docker stack deploy</text>

  <!-- Dockerfile.java -->
  <rect x="1340" y="360" width="110" height="48" rx="6" fill="white" stroke="#BAE6FD" stroke-width="1.5" filter="url(#sh)"/>
  <text x="1395" y="379" text-anchor="middle" fill="#0369A1" font-size="11" font-weight="600">maven:4.0.0</text>
  <text x="1395" y="395" text-anchor="middle" fill="#64748B" font-size="10">build stage</text>

  <rect x="1460" y="360" width="110" height="48" rx="6" fill="white" stroke="#BAE6FD" stroke-width="1.5" filter="url(#sh)"/>
  <text x="1515" y="379" text-anchor="middle" fill="#0369A1" font-size="10" font-weight="600">eclipse-temurin</text>
  <text x="1515" y="395" text-anchor="middle" fill="#64748B" font-size="10">:21-jre · run stage</text>

  <!-- Dockerfile.svelte -->
  <rect x="1585" y="360" width="110" height="48" rx="6" fill="white" stroke="#BAE6FD" stroke-width="1.5" filter="url(#sh)"/>
  <text x="1640" y="379" text-anchor="middle" fill="#0369A1" font-size="11" font-weight="600">node:20-slim</text>
  <text x="1640" y="395" text-anchor="middle" fill="#64748B" font-size="10">build stage</text>

  <rect x="1705" y="360" width="110" height="48" rx="6" fill="white" stroke="#BAE6FD" stroke-width="1.5" filter="url(#sh)"/>
  <text x="1760" y="379" text-anchor="middle" fill="#0369A1" font-size="11" font-weight="600">nginx:alpine</text>
  <text x="1760" y="395" text-anchor="middle" fill="#64748B" font-size="10">serve stage</text>

  <!-- Footer -->
  <text x="918" y="420" text-anchor="middle" fill="#CBD5E1" font-size="9">Infrastructure layer · main.tf (Terraform) · 5 playbooks (Ansible) · Dockerfiles</text>
</svg>
