<svg xmlns="http://www.w3.org/2000/svg" width="1140" height="430" viewBox="0 0 1140 430"
     font-family="system-ui,-apple-system,BlinkMacSystemFont,'Segoe UI',Helvetica,Arial,sans-serif">
  <defs>
    <filter id="sh"><feDropShadow dx="0" dy="1" stdDeviation="3" flood-color="rgba(0,0,0,0.10)"/></filter>
    <marker id="a"   markerWidth="7" markerHeight="6" refX="7" refY="3" orient="auto"><polygon points="0 0,7 3,0 6" fill="#94A3B8"/></marker>
    <marker id="a-o" markerWidth="7" markerHeight="6" refX="7" refY="3" orient="auto"><polygon points="0 0,7 3,0 6" fill="#F97316"/></marker>
    <marker id="a-g" markerWidth="7" markerHeight="6" refX="7" refY="3" orient="auto"><polygon points="0 0,7 3,0 6" fill="#16A34A"/></marker>
  </defs>

  <rect width="1140" height="430" fill="#F8FAFC"/>

  <!-- ═══════════════════════════════════════ -->
  <!-- CONNECTORS                             -->
  <!-- ═══════════════════════════════════════ -->

  <!-- Root → L1 -->
  <line x1="565" y1="70"  x2="565" y2="105" stroke="#94A3B8" stroke-width="1.5"/>
  <line x1="315" y1="105" x2="875" y2="105" stroke="#94A3B8" stroke-width="1.5"/>
  <line x1="315" y1="105" x2="315" y2="140" stroke="#94A3B8" stroke-width="1.5" marker-end="url(#a)"/>
  <line x1="875" y1="105" x2="875" y2="140" stroke="#94A3B8" stroke-width="1.5" marker-end="url(#a)"/>

  <!-- Java L1 → pom.xml -->
  <line x1="315" y1="195" x2="315" y2="255" stroke="#F97316" stroke-width="1.5" marker-end="url(#a-o)"/>

  <!-- Svelte L1 → package.json -->
  <line x1="875" y1="195" x2="875" y2="255" stroke="#16A34A" stroke-width="1.5" marker-end="url(#a-g)"/>

  <!-- pom.xml → 5 deps (junction y=330) -->
  <line x1="315" y1="300" x2="315" y2="330" stroke="#F97316" stroke-width="1.5"/>
  <line x1="75"  y1="330" x2="555" y2="330" stroke="#F97316" stroke-width="1.5"/>
  <line x1="75"  y1="330" x2="75"  y2="360" stroke="#F97316" stroke-width="1.5" marker-end="url(#a-o)"/>
  <line x1="195" y1="330" x2="195" y2="360" stroke="#F97316" stroke-width="1.5" marker-end="url(#a-o)"/>
  <line x1="315" y1="330" x2="315" y2="360" stroke="#F97316" stroke-width="1.5" marker-end="url(#a-o)"/>
  <line x1="435" y1="330" x2="435" y2="360" stroke="#F97316" stroke-width="1.5" marker-end="url(#a-o)"/>
  <line x1="555" y1="330" x2="555" y2="360" stroke="#F97316" stroke-width="1.5" marker-end="url(#a-o)"/>

  <!-- package.json → 4 deps (junction y=330) -->
  <line x1="875"  y1="300" x2="875"  y2="330" stroke="#16A34A" stroke-width="1.5"/>
  <line x1="695"  y1="330" x2="1055" y2="330" stroke="#16A34A" stroke-width="1.5"/>
  <line x1="695"  y1="330" x2="695"  y2="360" stroke="#16A34A" stroke-width="1.5" marker-end="url(#a-g)"/>
  <line x1="815"  y1="330" x2="815"  y2="360" stroke="#16A34A" stroke-width="1.5" marker-end="url(#a-g)"/>
  <line x1="935"  y1="330" x2="935"  y2="360" stroke="#16A34A" stroke-width="1.5" marker-end="url(#a-g)"/>
  <line x1="1055" y1="330" x2="1055" y2="360" stroke="#16A34A" stroke-width="1.5" marker-end="url(#a-g)"/>

  <!-- ═══════════════════════════════════════ -->
  <!-- L0 — ROOT                             -->
  <!-- ═══════════════════════════════════════ -->
  <rect x="455" y="20" width="220" height="50" rx="8" fill="#0F172A" filter="url(#sh)"/>
  <text x="565" y="42" text-anchor="middle" fill="white"   font-size="13" font-weight="700">Application Layer</text>
  <text x="565" y="58" text-anchor="middle" fill="#64748B" font-size="9">minitwit-java · minitwit-svelte</text>

  <!-- ═══════════════════════════════════════ -->
  <!-- L1 — TOOLS                            -->
  <!-- ═══════════════════════════════════════ -->

  <rect x="220" y="140" width="190" height="55" rx="8" fill="white" stroke="#F97316" stroke-width="2" filter="url(#sh)"/>
  <text x="315" y="157" text-anchor="middle" fill="#94A3B8" font-size="9"  font-style="italic">&lt;&lt;maven&gt;&gt;</text>
  <text x="315" y="172" text-anchor="middle" fill="#EA580C" font-size="12" font-weight="700">minitwit-java</text>
  <text x="315" y="186" text-anchor="middle" fill="#94A3B8" font-size="9"  font-family="'Courier New',monospace">pom.xml · Java 21</text>

  <rect x="780" y="140" width="190" height="55" rx="8" fill="white" stroke="#16A34A" stroke-width="2" filter="url(#sh)"/>
  <text x="875" y="157" text-anchor="middle" fill="#94A3B8" font-size="9"  font-style="italic">&lt;&lt;npm&gt;&gt;</text>
  <text x="875" y="172" text-anchor="middle" fill="#15803D" font-size="12" font-weight="700">minitwit-svelte</text>
  <text x="875" y="186" text-anchor="middle" fill="#94A3B8" font-size="9"  font-family="'Courier New',monospace">package.json · Node 20</text>

  <!-- ═══════════════════════════════════════ -->
  <!-- L2 — MANIFEST FILES                   -->
  <!-- ═══════════════════════════════════════ -->

  <rect x="250" y="255" width="130" height="45" rx="7" fill="white" stroke="#F97316" stroke-width="1.8" filter="url(#sh)"/>
  <text x="315" y="271" text-anchor="middle" fill="#94A3B8" font-size="8.5" font-style="italic">&lt;&lt;maven&gt;&gt;</text>
  <text x="315" y="287" text-anchor="middle" fill="#EA580C" font-size="11" font-weight="700" font-family="'Courier New',monospace">pom.xml</text>

  <rect x="810" y="255" width="130" height="45" rx="7" fill="white" stroke="#16A34A" stroke-width="1.8" filter="url(#sh)"/>
  <text x="875" y="271" text-anchor="middle" fill="#94A3B8" font-size="8.5" font-style="italic">&lt;&lt;npm&gt;&gt;</text>
  <text x="875" y="287" text-anchor="middle" fill="#15803D" font-size="11" font-weight="700" font-family="'Courier New',monospace">package.json</text>

  <!-- ═══════════════════════════════════════ -->
  <!-- L3 — DEPENDENCIES                     -->
  <!-- ═══════════════════════════════════════ -->

  <!-- Java deps -->
  <rect x="20"  y="360" width="110" height="48" rx="6" fill="white" stroke="#FED7AA" stroke-width="1.5" filter="url(#sh)"/>
  <text x="75"  y="379" text-anchor="middle" fill="#C2410C" font-size="11" font-weight="600">Javalin</text>
  <text x="75"  y="395" text-anchor="middle" fill="#64748B" font-size="10">7.0.1</text>

  <rect x="140" y="360" width="110" height="48" rx="6" fill="white" stroke="#FED7AA" stroke-width="1.5" filter="url(#sh)"/>
  <text x="195" y="379" text-anchor="middle" fill="#C2410C" font-size="11" font-weight="600">jOOQ</text>
  <text x="195" y="395" text-anchor="middle" fill="#64748B" font-size="10">3.20.11</text>

  <rect x="260" y="360" width="110" height="48" rx="6" fill="white" stroke="#FED7AA" stroke-width="1.5" filter="url(#sh)"/>
  <text x="315" y="379" text-anchor="middle" fill="#C2410C" font-size="11" font-weight="600">HikariCP</text>
  <text x="315" y="395" text-anchor="middle" fill="#64748B" font-size="10">5.1.0</text>

  <rect x="380" y="360" width="110" height="48" rx="6" fill="white" stroke="#FED7AA" stroke-width="1.5" filter="url(#sh)"/>
  <text x="435" y="379" text-anchor="middle" fill="#C2410C" font-size="11" font-weight="600">java-jwt</text>
  <text x="435" y="395" text-anchor="middle" fill="#64748B" font-size="10">4.5.1</text>

  <rect x="500" y="360" width="110" height="48" rx="6" fill="white" stroke="#FED7AA" stroke-width="1.5" filter="url(#sh)"/>
  <text x="555" y="379" text-anchor="middle" fill="#C2410C" font-size="11" font-weight="600">Prom. Client</text>
  <text x="555" y="395" text-anchor="middle" fill="#64748B" font-size="10">simpleclient 0.16</text>

  <!-- Svelte deps -->
  <rect x="640"  y="360" width="110" height="48" rx="6" fill="white" stroke="#BBF7D0" stroke-width="1.5" filter="url(#sh)"/>
  <text x="695"  y="379" text-anchor="middle" fill="#15803D" font-size="11" font-weight="600">SvelteKit</text>
  <text x="695"  y="395" text-anchor="middle" fill="#64748B" font-size="10">2.50.2</text>

  <rect x="760"  y="360" width="110" height="48" rx="6" fill="white" stroke="#BBF7D0" stroke-width="1.5" filter="url(#sh)"/>
  <text x="815"  y="379" text-anchor="middle" fill="#15803D" font-size="11" font-weight="600">Svelte</text>
  <text x="815"  y="395" text-anchor="middle" fill="#64748B" font-size="10">5.49.2</text>

  <rect x="880"  y="360" width="110" height="48" rx="6" fill="white" stroke="#BBF7D0" stroke-width="1.5" filter="url(#sh)"/>
  <text x="935"  y="379" text-anchor="middle" fill="#15803D" font-size="11" font-weight="600">Vite</text>
  <text x="935"  y="395" text-anchor="middle" fill="#64748B" font-size="10">7.3.1</text>

  <rect x="1000" y="360" width="110" height="48" rx="6" fill="white" stroke="#BBF7D0" stroke-width="1.5" filter="url(#sh)"/>
  <text x="1055" y="379" text-anchor="middle" fill="#15803D" font-size="11" font-weight="600">Tailwind CSS</text>
  <text x="1055" y="395" text-anchor="middle" fill="#64748B" font-size="10">4.2.0</text>

  <!-- Footer -->
  <text x="570" y="420" text-anchor="middle" fill="#CBD5E1" font-size="9">Application layer · pom.xml (Maven / Java 21) · package.json (npm / Node 20)</text>
</svg>
