<svg xmlns="http://www.w3.org/2000/svg" width="2960" height="450" viewBox="0 0 2960 450"
     font-family="system-ui,-apple-system,BlinkMacSystemFont,'Segoe UI',Helvetica,Arial,sans-serif">
  <defs>
    <filter id="sh"><feDropShadow dx="0" dy="1" stdDeviation="3" flood-color="rgba(0,0,0,0.10)"/></filter>
    <marker id="a"   markerWidth="7" markerHeight="6" refX="7" refY="3" orient="auto"><polygon points="0 0,7 3,0 6" fill="#94A3B8"/></marker>
    <marker id="a-o" markerWidth="7" markerHeight="6" refX="7" refY="3" orient="auto"><polygon points="0 0,7 3,0 6" fill="#F97316"/></marker>
    <marker id="a-g" markerWidth="7" markerHeight="6" refX="7" refY="3" orient="auto"><polygon points="0 0,7 3,0 6" fill="#16A34A"/></marker>
    <marker id="a-p" markerWidth="7" markerHeight="6" refX="7" refY="3" orient="auto"><polygon points="0 0,7 3,0 6" fill="#9333EA"/></marker>
    <marker id="a-r" markerWidth="7" markerHeight="6" refX="7" refY="3" orient="auto"><polygon points="0 0,7 3,0 6" fill="#DC2626"/></marker>
    <marker id="a-b" markerWidth="7" markerHeight="6" refX="7" refY="3" orient="auto"><polygon points="0 0,7 3,0 6" fill="#0284C7"/></marker>
  </defs>

  <rect width="2960" height="450" fill="#F8FAFC"/>

  <!-- ═══════════════════════════════════════ -->
  <!-- CONNECTORS                             -->
  <!-- ═══════════════════════════════════════ -->

  <!-- Root → L1 -->
  <line x1="1478" y1="70"   x2="1478" y2="105"  stroke="#94A3B8" stroke-width="1.5"/>
  <line x1="315"  y1="105"  x2="2698" y2="105"  stroke="#94A3B8" stroke-width="1.5"/>
  <line x1="315"  y1="105"  x2="315"  y2="140"  stroke="#94A3B8" stroke-width="1.5" marker-end="url(#a)"/>
  <line x1="875"  y1="105"  x2="875"  y2="140"  stroke="#94A3B8" stroke-width="1.5" marker-end="url(#a)"/>
  <line x1="1255" y1="105"  x2="1255" y2="140"  stroke="#94A3B8" stroke-width="1.5" marker-end="url(#a)"/>
  <line x1="1915" y1="105"  x2="1915" y2="140"  stroke="#94A3B8" stroke-width="1.5" marker-end="url(#a)"/>
  <line x1="2698" y1="105"  x2="2698" y2="140"  stroke="#94A3B8" stroke-width="1.5" marker-end="url(#a)"/>

  <!-- Java L1 → pom.xml -->
  <line x1="315"  y1="195"  x2="315"  y2="255"  stroke="#F97316" stroke-width="1.5" marker-end="url(#a-o)"/>

  <!-- Svelte L1 → package.json -->
  <line x1="875"  y1="195"  x2="875"  y2="255"  stroke="#16A34A" stroke-width="1.5" marker-end="url(#a-g)"/>

  <!-- Terraform L1 → main.tf -->
  <line x1="1255" y1="195"  x2="1255" y2="255"  stroke="#9333EA" stroke-width="1.5" marker-end="url(#a-p)"/>

  <!-- Ansible L1 → 5 playbooks (junction y=225) -->
  <line x1="1915" y1="195"  x2="1915" y2="225"  stroke="#DC2626" stroke-width="1.5"/>
  <line x1="1515" y1="225"  x2="2375" y2="225"  stroke="#DC2626" stroke-width="1.5"/>
  <line x1="1515" y1="225"  x2="1515" y2="255"  stroke="#DC2626" stroke-width="1.5" marker-end="url(#a-r)"/>
  <line x1="1715" y1="225"  x2="1715" y2="255"  stroke="#DC2626" stroke-width="1.5" marker-end="url(#a-r)"/>
  <line x1="1855" y1="225"  x2="1855" y2="255"  stroke="#DC2626" stroke-width="1.5" marker-end="url(#a-r)"/>
  <line x1="2115" y1="225"  x2="2115" y2="255"  stroke="#DC2626" stroke-width="1.5" marker-end="url(#a-r)"/>
  <line x1="2375" y1="225"  x2="2375" y2="255"  stroke="#DC2626" stroke-width="1.5" marker-end="url(#a-r)"/>

  <!-- Docker L1 → 2 Dockerfiles (junction y=225) -->
  <line x1="2698" y1="195"  x2="2698" y2="225"  stroke="#0284C7" stroke-width="1.5"/>
  <line x1="2575" y1="225"  x2="2820" y2="225"  stroke="#0284C7" stroke-width="1.5"/>
  <line x1="2575" y1="225"  x2="2575" y2="255"  stroke="#0284C7" stroke-width="1.5" marker-end="url(#a-b)"/>
  <line x1="2820" y1="225"  x2="2820" y2="255"  stroke="#0284C7" stroke-width="1.5" marker-end="url(#a-b)"/>

  <!-- pom.xml → 5 deps -->
  <line x1="315"  y1="300"  x2="315"  y2="330"  stroke="#F97316" stroke-width="1.5"/>
  <line x1="75"   y1="330"  x2="555"  y2="330"  stroke="#F97316" stroke-width="1.5"/>
  <line x1="75"   y1="330"  x2="75"   y2="360"  stroke="#F97316" stroke-width="1.5" marker-end="url(#a-o)"/>
  <line x1="195"  y1="330"  x2="195"  y2="360"  stroke="#F97316" stroke-width="1.5" marker-end="url(#a-o)"/>
  <line x1="315"  y1="330"  x2="315"  y2="360"  stroke="#F97316" stroke-width="1.5" marker-end="url(#a-o)"/>
  <line x1="435"  y1="330"  x2="435"  y2="360"  stroke="#F97316" stroke-width="1.5" marker-end="url(#a-o)"/>
  <line x1="555"  y1="330"  x2="555"  y2="360"  stroke="#F97316" stroke-width="1.5" marker-end="url(#a-o)"/>

  <!-- package.json → 4 deps -->
  <line x1="875"  y1="300"  x2="875"  y2="330"  stroke="#16A34A" stroke-width="1.5"/>
  <line x1="695"  y1="330"  x2="1055" y2="330"  stroke="#16A34A" stroke-width="1.5"/>
  <line x1="695"  y1="330"  x2="695"  y2="360"  stroke="#16A34A" stroke-width="1.5" marker-end="url(#a-g)"/>
  <line x1="815"  y1="330"  x2="815"  y2="360"  stroke="#16A34A" stroke-width="1.5" marker-end="url(#a-g)"/>
  <line x1="935"  y1="330"  x2="935"  y2="360"  stroke="#16A34A" stroke-width="1.5" marker-end="url(#a-g)"/>
  <line x1="1055" y1="330"  x2="1055" y2="360"  stroke="#16A34A" stroke-width="1.5" marker-end="url(#a-g)"/>

  <!-- main.tf → 2 resources -->
  <line x1="1255" y1="300"  x2="1255" y2="330"  stroke="#9333EA" stroke-width="1.5"/>
  <line x1="1195" y1="330"  x2="1315" y2="330"  stroke="#9333EA" stroke-width="1.5"/>
  <line x1="1195" y1="330"  x2="1195" y2="360"  stroke="#9333EA" stroke-width="1.5" marker-end="url(#a-p)"/>
  <line x1="1315" y1="330"  x2="1315" y2="360"  stroke="#9333EA" stroke-width="1.5" marker-end="url(#a-p)"/>

  <!-- base.yml → 2 -->
  <line x1="1515" y1="300"  x2="1515" y2="330"  stroke="#DC2626" stroke-width="1.5"/>
  <line x1="1455" y1="330"  x2="1575" y2="330"  stroke="#DC2626" stroke-width="1.5"/>
  <line x1="1455" y1="330"  x2="1455" y2="360"  stroke="#DC2626" stroke-width="1.5" marker-end="url(#a-r)"/>
  <line x1="1575" y1="330"  x2="1575" y2="360"  stroke="#DC2626" stroke-width="1.5" marker-end="url(#a-r)"/>

  <!-- swarm.yml → 1 (straight) -->
  <line x1="1715" y1="300"  x2="1715" y2="360"  stroke="#DC2626" stroke-width="1.5" marker-end="url(#a-r)"/>

  <!-- db.yml → 1 (straight) -->
  <line x1="1855" y1="300"  x2="1855" y2="360"  stroke="#DC2626" stroke-width="1.5" marker-end="url(#a-r)"/>

  <!-- monitoring.yml → 3 -->
  <line x1="2115" y1="300"  x2="2115" y2="330"  stroke="#DC2626" stroke-width="1.5"/>
  <line x1="1995" y1="330"  x2="2235" y2="330"  stroke="#DC2626" stroke-width="1.5"/>
  <line x1="1995" y1="330"  x2="1995" y2="360"  stroke="#DC2626" stroke-width="1.5" marker-end="url(#a-r)"/>
  <line x1="2115" y1="330"  x2="2115" y2="360"  stroke="#DC2626" stroke-width="1.5" marker-end="url(#a-r)"/>
  <line x1="2235" y1="330"  x2="2235" y2="360"  stroke="#DC2626" stroke-width="1.5" marker-end="url(#a-r)"/>

  <!-- deploy.yml → 1 (straight) -->
  <line x1="2375" y1="300"  x2="2375" y2="360"  stroke="#DC2626" stroke-width="1.5" marker-end="url(#a-r)"/>

  <!-- Df.java → 2 -->
  <line x1="2575" y1="300"  x2="2575" y2="330"  stroke="#0284C7" stroke-width="1.5"/>
  <line x1="2515" y1="330"  x2="2635" y2="330"  stroke="#0284C7" stroke-width="1.5"/>
  <line x1="2515" y1="330"  x2="2515" y2="360"  stroke="#0284C7" stroke-width="1.5" marker-end="url(#a-b)"/>
  <line x1="2635" y1="330"  x2="2635" y2="360"  stroke="#0284C7" stroke-width="1.5" marker-end="url(#a-b)"/>

  <!-- Df.svelte → 2 -->
  <line x1="2820" y1="300"  x2="2820" y2="330"  stroke="#0284C7" stroke-width="1.5"/>
  <line x1="2760" y1="330"  x2="2880" y2="330"  stroke="#0284C7" stroke-width="1.5"/>
  <line x1="2760" y1="330"  x2="2760" y2="360"  stroke="#0284C7" stroke-width="1.5" marker-end="url(#a-b)"/>
  <line x1="2880" y1="330"  x2="2880" y2="360"  stroke="#0284C7" stroke-width="1.5" marker-end="url(#a-b)"/>

  <!-- ═══════════════════════════════════════ -->
  <!-- L0 — ROOT                             -->
  <!-- ═══════════════════════════════════════ -->
  <rect x="1368" y="20" width="220" height="50" rx="8" fill="#0F172A" filter="url(#sh)"/>
  <text x="1478" y="42" text-anchor="middle" fill="white"   font-size="13" font-weight="700">MiniTwit Project</text>
  <text x="1478" y="58" text-anchor="middle" fill="#64748B" font-size="9">minitwit_project/</text>

  <!-- ═══════════════════════════════════════ -->
  <!-- L1 — TOOLS                            -->
  <!-- ═══════════════════════════════════════ -->

  <rect x="220"  y="140" width="190" height="55" rx="8" fill="white" stroke="#F97316" stroke-width="2" filter="url(#sh)"/>
  <text x="315"  y="157" text-anchor="middle" fill="#94A3B8" font-size="9"  font-style="italic">&lt;&lt;maven&gt;&gt;</text>
  <text x="315"  y="172" text-anchor="middle" fill="#EA580C" font-size="12" font-weight="700">minitwit-java</text>
  <text x="315"  y="186" text-anchor="middle" fill="#94A3B8" font-size="9"  font-family="'Courier New',monospace">pom.xml · Java 21</text>

  <rect x="780"  y="140" width="190" height="55" rx="8" fill="white" stroke="#16A34A" stroke-width="2" filter="url(#sh)"/>
  <text x="875"  y="157" text-anchor="middle" fill="#94A3B8" font-size="9"  font-style="italic">&lt;&lt;npm&gt;&gt;</text>
  <text x="875"  y="172" text-anchor="middle" fill="#15803D" font-size="12" font-weight="700">minitwit-svelte</text>
  <text x="875"  y="186" text-anchor="middle" fill="#94A3B8" font-size="9"  font-family="'Courier New',monospace">package.json · Node 20</text>

  <rect x="1160" y="140" width="190" height="55" rx="8" fill="white" stroke="#9333EA" stroke-width="2" filter="url(#sh)"/>
  <text x="1255" y="157" text-anchor="middle" fill="#94A3B8" font-size="9"  font-style="italic">&lt;&lt;terraform&gt;&gt;</text>
  <text x="1255" y="172" text-anchor="middle" fill="#7E22CE" font-size="12" font-weight="700">infra/terraform</text>
  <text x="1255" y="186" text-anchor="middle" fill="#94A3B8" font-size="9"  font-family="'Courier New',monospace">main.tf · DO provider</text>

  <rect x="1820" y="140" width="190" height="55" rx="8" fill="white" stroke="#DC2626" stroke-width="2" filter="url(#sh)"/>
  <text x="1915" y="157" text-anchor="middle" fill="#94A3B8" font-size="9"  font-style="italic">&lt;&lt;ansible&gt;&gt;</text>
  <text x="1915" y="172" text-anchor="middle" fill="#B91C1C" font-size="12" font-weight="700">infra/ansible</text>
  <text x="1915" y="186" text-anchor="middle" fill="#94A3B8" font-size="9"  font-family="'Courier New',monospace">playbooks/ · inventory</text>

  <rect x="2603" y="140" width="190" height="55" rx="8" fill="white" stroke="#0284C7" stroke-width="2" filter="url(#sh)"/>
  <text x="2698" y="157" text-anchor="middle" fill="#94A3B8" font-size="9"  font-style="italic">&lt;&lt;docker&gt;&gt;</text>
  <text x="2698" y="172" text-anchor="middle" fill="#0369A1" font-size="12" font-weight="700">docker/</text>
  <text x="2698" y="186" text-anchor="middle" fill="#94A3B8" font-size="9"  font-family="'Courier New',monospace">Dockerfiles · compose</text>

  <!-- ═══════════════════════════════════════ -->
  <!-- L2 — MANIFEST / CONFIG FILES          -->
  <!-- ═══════════════════════════════════════ -->

  <rect x="250"  y="255" width="130" height="45" rx="7" fill="white" stroke="#F97316" stroke-width="1.8" filter="url(#sh)"/>
  <text x="315"  y="271" text-anchor="middle" fill="#94A3B8" font-size="8.5" font-style="italic">&lt;&lt;maven&gt;&gt;</text>
  <text x="315"  y="287" text-anchor="middle" fill="#EA580C" font-size="11" font-weight="700" font-family="'Courier New',monospace">pom.xml</text>

  <rect x="810"  y="255" width="130" height="45" rx="7" fill="white" stroke="#16A34A" stroke-width="1.8" filter="url(#sh)"/>
  <text x="875"  y="271" text-anchor="middle" fill="#94A3B8" font-size="8.5" font-style="italic">&lt;&lt;npm&gt;&gt;</text>
  <text x="875"  y="287" text-anchor="middle" fill="#15803D" font-size="11" font-weight="700" font-family="'Courier New',monospace">package.json</text>

  <rect x="1190" y="255" width="130" height="45" rx="7" fill="white" stroke="#9333EA" stroke-width="1.8" filter="url(#sh)"/>
  <text x="1255" y="271" text-anchor="middle" fill="#94A3B8" font-size="8.5" font-style="italic">&lt;&lt;terraform&gt;&gt;</text>
  <text x="1255" y="287" text-anchor="middle" fill="#7E22CE" font-size="11" font-weight="700" font-family="'Courier New',monospace">main.tf</text>

  <rect x="1450" y="255" width="130" height="45" rx="7" fill="white" stroke="#DC2626" stroke-width="1.8" filter="url(#sh)"/>
  <text x="1515" y="271" text-anchor="middle" fill="#94A3B8" font-size="8.5" font-style="italic">&lt;&lt;playbook&gt;&gt;</text>
  <text x="1515" y="287" text-anchor="middle" fill="#B91C1C" font-size="11" font-weight="700" font-family="'Courier New',monospace">base.yml</text>

  <rect x="1650" y="255" width="130" height="45" rx="7" fill="white" stroke="#DC2626" stroke-width="1.8" filter="url(#sh)"/>
  <text x="1715" y="271" text-anchor="middle" fill="#94A3B8" font-size="8.5" font-style="italic">&lt;&lt;playbook&gt;&gt;</text>
  <text x="1715" y="287" text-anchor="middle" fill="#B91C1C" font-size="11" font-weight="700" font-family="'Courier New',monospace">swarm.yml</text>

  <rect x="1790" y="255" width="130" height="45" rx="7" fill="white" stroke="#DC2626" stroke-width="1.8" filter="url(#sh)"/>
  <text x="1855" y="271" text-anchor="middle" fill="#94A3B8" font-size="8.5" font-style="italic">&lt;&lt;playbook&gt;&gt;</text>
  <text x="1855" y="287" text-anchor="middle" fill="#B91C1C" font-size="11" font-weight="700" font-family="'Courier New',monospace">db.yml</text>

  <rect x="2050" y="255" width="130" height="45" rx="7" fill="white" stroke="#DC2626" stroke-width="1.8" filter="url(#sh)"/>
  <text x="2115" y="271" text-anchor="middle" fill="#94A3B8" font-size="8.5" font-style="italic">&lt;&lt;playbook&gt;&gt;</text>
  <text x="2115" y="287" text-anchor="middle" fill="#B91C1C" font-size="11" font-weight="700" font-family="'Courier New',monospace">monitoring.yml</text>

  <rect x="2310" y="255" width="130" height="45" rx="7" fill="white" stroke="#DC2626" stroke-width="1.8" filter="url(#sh)"/>
  <text x="2375" y="271" text-anchor="middle" fill="#94A3B8" font-size="8.5" font-style="italic">&lt;&lt;playbook&gt;&gt;</text>
  <text x="2375" y="287" text-anchor="middle" fill="#B91C1C" font-size="11" font-weight="700" font-family="'Courier New',monospace">deploy.yml</text>

  <rect x="2510" y="255" width="130" height="45" rx="7" fill="white" stroke="#0284C7" stroke-width="1.8" filter="url(#sh)"/>
  <text x="2575" y="271" text-anchor="middle" fill="#94A3B8" font-size="8.5" font-style="italic">&lt;&lt;dockerfile&gt;&gt;</text>
  <text x="2575" y="287" text-anchor="middle" fill="#0369A1" font-size="11" font-weight="700" font-family="'Courier New',monospace">Dockerfile.java</text>

  <rect x="2755" y="255" width="130" height="45" rx="7" fill="white" stroke="#0284C7" stroke-width="1.8" filter="url(#sh)"/>
  <text x="2820" y="271" text-anchor="middle" fill="#94A3B8" font-size="8.5" font-style="italic">&lt;&lt;dockerfile&gt;&gt;</text>
  <text x="2820" y="287" text-anchor="middle" fill="#0369A1" font-size="11" font-weight="700" font-family="'Courier New',monospace">Dockerfile.svelte</text>

  <!-- ═══════════════════════════════════════ -->
  <!-- L3 — DEPENDENCIES                     -->
  <!-- ═══════════════════════════════════════ -->

  <!-- Java -->
  <rect x="20"   y="360" width="110" height="48" rx="6" fill="white" stroke="#FED7AA" stroke-width="1.5" filter="url(#sh)"/>
  <text x="75"   y="379" text-anchor="middle" fill="#C2410C" font-size="11" font-weight="600">Javalin</text>
  <text x="75"   y="395" text-anchor="middle" fill="#64748B" font-size="10">7.0.1</text>

  <rect x="140"  y="360" width="110" height="48" rx="6" fill="white" stroke="#FED7AA" stroke-width="1.5" filter="url(#sh)"/>
  <text x="195"  y="379" text-anchor="middle" fill="#C2410C" font-size="11" font-weight="600">jOOQ</text>
  <text x="195"  y="395" text-anchor="middle" fill="#64748B" font-size="10">3.20.11</text>

  <rect x="260"  y="360" width="110" height="48" rx="6" fill="white" stroke="#FED7AA" stroke-width="1.5" filter="url(#sh)"/>
  <text x="315"  y="379" text-anchor="middle" fill="#C2410C" font-size="11" font-weight="600">HikariCP</text>
  <text x="315"  y="395" text-anchor="middle" fill="#64748B" font-size="10">5.1.0</text>

  <rect x="380"  y="360" width="110" height="48" rx="6" fill="white" stroke="#FED7AA" stroke-width="1.5" filter="url(#sh)"/>
  <text x="435"  y="379" text-anchor="middle" fill="#C2410C" font-size="11" font-weight="600">java-jwt</text>
  <text x="435"  y="395" text-anchor="middle" fill="#64748B" font-size="10">4.5.1</text>

  <rect x="500"  y="360" width="110" height="48" rx="6" fill="white" stroke="#FED7AA" stroke-width="1.5" filter="url(#sh)"/>
  <text x="555"  y="379" text-anchor="middle" fill="#C2410C" font-size="11" font-weight="600">Prom. Client</text>
  <text x="555"  y="395" text-anchor="middle" fill="#64748B" font-size="10">simpleclient 0.16</text>

  <!-- Svelte -->
  <rect x="640"  y="360" width="110" height="48" rx="6" fill="white" stroke="#BBF7D0" stroke-width="1.5" filter="url(#sh)"/>
  <text x="695"  y="379" text-anchor="middle" fill="#15803D" font-size="11" font-weight="600">SvelteKit</text>
  <text x="695"  y="395" text-anchor="middle" fill="#64748B" font-size="10">2.50.2</text>

  <rect x="760"  y="360" width="110" height="48" rx="6" fill="white" stroke="#BBF7D0" stroke-width="1.5" filter="url(#sh)"/>
  <text x="815"  y="379" text-anchor="middle" fill="#15803D" font-size="11" font-weight="600">Svelte</text>
  <text x="815"  y="395" text-anchor="middle" fill="#64748B" font-size="10">5.49.2</text>

  <rect x="880"  y="360" width="110" height="48" rx="6" fill="white" stroke="#BBF7D0" stroke-width="1.5" filter="url(#sh)"/>
  <text x="935"  y="379" text-anchor="middle" fill="#15803D" font-size="11" font-weight="600">Vite</text>
  <text x="935"  y="395" text-anchor="middle" fill="#64748B" font-size="10">7.3.1</text>

  <rect x="1000" y="360" width="110" height="48" rx="6" fill="white" stroke="#BBF7D0" stroke-width="1.5" filter="url(#sh)"/>
  <text x="1055" y="379" text-anchor="middle" fill="#15803D" font-size="11" font-weight="600">Tailwind CSS</text>
  <text x="1055" y="395" text-anchor="middle" fill="#64748B" font-size="10">4.2.0</text>

  <!-- Terraform -->
  <rect x="1140" y="360" width="110" height="48" rx="6" fill="white" stroke="#C4B5FD" stroke-width="1.5" filter="url(#sh)"/>
  <text x="1195" y="379" text-anchor="middle" fill="#7C3AED" font-size="11" font-weight="600">Droplets ×5</text>
  <text x="1195" y="395" text-anchor="middle" fill="#64748B" font-size="10">s-1vcpu-2gb · FRA1</text>

  <rect x="1260" y="360" width="110" height="48" rx="6" fill="white" stroke="#C4B5FD" stroke-width="1.5" filter="url(#sh)"/>
  <text x="1315" y="379" text-anchor="middle" fill="#7C3AED" font-size="11" font-weight="600">Volumes ×2</text>
  <text x="1315" y="395" text-anchor="middle" fill="#64748B" font-size="10">db + monitoring</text>

  <!-- base.yml -->
  <rect x="1400" y="360" width="110" height="48" rx="6" fill="white" stroke="#FCA5A5" stroke-width="1.5" filter="url(#sh)"/>
  <text x="1455" y="379" text-anchor="middle" fill="#991B1B" font-size="11" font-weight="600">Docker CE</text>
  <text x="1455" y="395" text-anchor="middle" fill="#64748B" font-size="10">installed on all</text>

  <rect x="1520" y="360" width="110" height="48" rx="6" fill="white" stroke="#FCA5A5" stroke-width="1.5" filter="url(#sh)"/>
  <text x="1575" y="379" text-anchor="middle" fill="#991B1B" font-size="11" font-weight="600">Grafana Alloy</text>
  <text x="1575" y="395" text-anchor="middle" fill="#64748B" font-size="10">collector agent</text>

  <!-- swarm.yml -->
  <rect x="1660" y="360" width="110" height="48" rx="6" fill="white" stroke="#FCA5A5" stroke-width="1.5" filter="url(#sh)"/>
  <text x="1715" y="379" text-anchor="middle" fill="#991B1B" font-size="11" font-weight="600">Docker Swarm</text>
  <text x="1715" y="395" text-anchor="middle" fill="#64748B" font-size="10">init + join</text>

  <!-- db.yml -->
  <rect x="1800" y="360" width="110" height="48" rx="6" fill="white" stroke="#FCA5A5" stroke-width="1.5" filter="url(#sh)"/>
  <text x="1855" y="379" text-anchor="middle" fill="#991B1B" font-size="11" font-weight="600">postgres</text>
  <text x="1855" y="395" text-anchor="middle" fill="#64748B" font-size="10">15-alpine</text>

  <!-- monitoring.yml -->
  <rect x="1940" y="360" width="110" height="48" rx="6" fill="white" stroke="#FCA5A5" stroke-width="1.5" filter="url(#sh)"/>
  <text x="1995" y="379" text-anchor="middle" fill="#991B1B" font-size="11" font-weight="600">Prometheus</text>
  <text x="1995" y="395" text-anchor="middle" fill="#64748B" font-size="10">prom/prometheus</text>

  <rect x="2060" y="360" width="110" height="48" rx="6" fill="white" stroke="#FCA5A5" stroke-width="1.5" filter="url(#sh)"/>
  <text x="2115" y="379" text-anchor="middle" fill="#991B1B" font-size="11" font-weight="600">Grafana</text>
  <text x="2115" y="395" text-anchor="middle" fill="#64748B" font-size="10">grafana/grafana</text>

  <rect x="2180" y="360" width="110" height="48" rx="6" fill="white" stroke="#FCA5A5" stroke-width="1.5" filter="url(#sh)"/>
  <text x="2235" y="379" text-anchor="middle" fill="#991B1B" font-size="11" font-weight="600">Loki</text>
  <text x="2235" y="395" text-anchor="middle" fill="#64748B" font-size="10">grafana/loki</text>

  <!-- deploy.yml -->
  <rect x="2320" y="360" width="110" height="48" rx="6" fill="white" stroke="#FCA5A5" stroke-width="1.5" filter="url(#sh)"/>
  <text x="2375" y="379" text-anchor="middle" fill="#991B1B" font-size="11" font-weight="600">App stack</text>
  <text x="2375" y="395" text-anchor="middle" fill="#64748B" font-size="10">docker stack deploy</text>

  <!-- Dockerfile.java -->
  <rect x="2460" y="360" width="110" height="48" rx="6" fill="white" stroke="#BAE6FD" stroke-width="1.5" filter="url(#sh)"/>
  <text x="2515" y="379" text-anchor="middle" fill="#0369A1" font-size="11" font-weight="600">maven:4.0.0</text>
  <text x="2515" y="395" text-anchor="middle" fill="#64748B" font-size="10">build stage</text>

  <rect x="2580" y="360" width="110" height="48" rx="6" fill="white" stroke="#BAE6FD" stroke-width="1.5" filter="url(#sh)"/>
  <text x="2635" y="379" text-anchor="middle" fill="#0369A1" font-size="10" font-weight="600">eclipse-temurin</text>
  <text x="2635" y="395" text-anchor="middle" fill="#64748B" font-size="10">:21-jre · run stage</text>

  <!-- Dockerfile.svelte -->
  <rect x="2705" y="360" width="110" height="48" rx="6" fill="white" stroke="#BAE6FD" stroke-width="1.5" filter="url(#sh)"/>
  <text x="2760" y="379" text-anchor="middle" fill="#0369A1" font-size="11" font-weight="600">node:20-slim</text>
  <text x="2760" y="395" text-anchor="middle" fill="#64748B" font-size="10">build stage</text>

  <rect x="2825" y="360" width="110" height="48" rx="6" fill="white" stroke="#BAE6FD" stroke-width="1.5" filter="url(#sh)"/>
  <text x="2880" y="379" text-anchor="middle" fill="#0369A1" font-size="11" font-weight="600">nginx:alpine</text>
  <text x="2880" y="395" text-anchor="middle" fill="#64748B" font-size="10">serve stage</text>

  <!-- Footer -->
  <text x="1478" y="436" text-anchor="middle" fill="#CBD5E1" font-size="9">
    4-level dependency tree · pom.xml (Maven/Java 21) · package.json (npm/Node 20) · main.tf (Terraform) · 5 playbooks (Ansible) · Dockerfiles
  </text>
</svg>
